<?xml version="1.0" encoding="iso-8859-1"?>
<!-- Generator: Adobe Illustrator 29.0.0, SVG Export Plug-In . SVG Version: 9.03 Build 54978)  -->
<svg version="1.1" xmlns="http://www.w3.org/2000/svg" xmlns:xlink="http://www.w3.org/1999/xlink" x="0px" y="0px"
	 viewBox="0 0 422.571 591.198" style="enable-background:new 0 0 422.571 591.198;" xml:space="preserve">
<g id="Layer_1">
	<g>
		<path style="fill:#DFC68F;" d="M250.799,288.046l2.524,2.525c48.272-39.321,88.406-7.486,100.969,20.158
			c6.273,13.804,21.691,85.828,7.542,85.828h-73.181c-18.965,0-45.405-37.031-47.885-35.319
			c-0.983,0.678-15.124,35.319-42.96,35.319l-147.994,0c-10.75,0-17.197-12.074-11.105-20.932
			c11.674-16.974,30.628-31.546,48.364-34.279c8.911-1.373,42.625-0.272,42.625-0.272l0.402-28.143
			c1.482-8.266-4.207-12.267-12.605-12.267H74.032c-8.213,0-16.38-1.901-23.613-5.792c-3.87-2.082-6.759-4.102-8.329-5.043
			C-7.18,260.29,3.078,185.193,53.812,166.733c6.4-2.328,19.546-1.74,20.342-2.384c1.251-1.013-11.598-22.24-13.726-29.119
			C24.445,18.909,180.606-35.765,234.914,56.628c4.064,6.914,15.434,30.477,15.885,49.726V288.046z M220.517,255.241
			c5.411-6.495,9.331-147.957,0-169.074C176.973-12.381,54.743,56.322,88.342,132.564c12.515,28.398,87.106,91.303,114.546,112.546
			C205.719,247.302,219.544,256.408,220.517,255.241z M163.066,275.429c11.941,0,17.899-14.418,9.471-22.876
			c-20.284-20.357-43.518-42.798-63.286-55.12c-48.406-30.175-95.195,25.613-62.701,62.737c1.331,1.521,5.856,5.335,11.254,8.814
			c6.551,4.222,14.207,6.446,22.001,6.446L163.066,275.429z"/>
		<path style="fill:#DFC68F;" d="M170.047,451.647v15.994c0,10.914-8.848,19.761-19.761,19.761H36.684
			c-10.221,0-18.755-7.794-19.68-17.972l-1.454-15.994c-1.052-11.573,8.06-21.551,19.68-21.551h115.056
			C161.2,431.885,170.047,440.733,170.047,451.647z"/>
		<path style="fill:#DFC68F;" d="M164.465,535.966l4.107,27.347c1.385,9.219-5.579,17.638-14.899,17.859
			c-15.998,0.379-38.524-3.626-44.421-5.226c-16.239-4.405-34.152-13.688-47.504-26.448c-10.119-9.671-3.204-26.768,10.793-26.768
			h76.551C156.786,522.731,163.322,528.358,164.465,535.966z"/>
		<path style="fill:#DFC68F;" d="M337.766,268.254c11.343-13.073,22.686-26.146,34.029-39.219
			c7.34-8.459,14.313-17.278,22.148-25.251c5.116-5.206,9.695-4.513,14.659,0.402c4.985,4.935,5.292,9.379,0.819,14.764
			c-1.424,1.715-3.069,3.326-4.865,4.641c-21.536,15.764-43.119,31.463-64.69,47.179
			C339.166,269.931,338.466,269.093,337.766,268.254z"/>
		<path style="fill:#DFC68F;" d="M332.418,257.512c-3.349-29.233-6.751-56.99-9.595-84.803c-1.015-9.93,3.761-14.671,12.046-13.84
			c5.882,0.59,9.245,3.736,9.917,9.548c0.256,2.215,0.184,4.521-0.101,6.739c-3.277,25.51-6.604,51.014-10.003,76.509
			C334.477,253.207,333.55,254.654,332.418,257.512z"/>
	</g>
</g>
<g id="Layer_2">
	<g>
		<path style="fill:#DFC68F;" d="M250.799,288.046l2.524,2.525c48.272-39.321,88.406-7.486,100.969,20.158
			c6.273,13.804,21.691,85.828,7.542,85.828h-73.181c-18.965,0-45.405-37.031-47.885-35.319
			c-0.983,0.678-15.124,35.319-42.96,35.319l-147.994,0c-10.75,0-17.197-12.074-11.105-20.932
			c11.674-16.974,30.628-31.546,48.364-34.279c8.911-1.373,42.625-0.272,42.625-0.272l0.402-28.143
			c1.482-8.266-4.207-12.267-12.605-12.267H74.032c-8.213,0-16.38-1.901-23.613-5.792c-3.87-2.082-6.759-4.102-8.329-5.043
			C-7.18,260.29,3.078,185.193,53.812,166.733c6.4-2.328,19.546-1.74,20.342-2.384c1.251-1.013-11.598-22.24-13.726-29.119
			C24.445,18.909,180.606-35.765,234.914,56.628c4.064,6.914,15.434,30.477,15.885,49.726V288.046z M220.517,255.241
			c5.411-6.495,9.331-147.957,0-169.074C176.973-12.381,54.743,56.322,88.342,132.564c12.515,28.398,87.106,91.303,114.546,112.546
			C205.719,247.302,219.544,256.408,220.517,255.241z M163.066,275.429c11.941,0,17.899-14.418,9.471-22.876
			c-20.284-20.357-43.518-42.798-63.286-55.12c-48.406-30.175-95.195,25.613-62.701,62.737c1.331,1.521,5.856,5.335,11.254,8.814
			c6.551,4.222,14.207,6.446,22.001,6.446L163.066,275.429z"/>
		<path style="fill:#DFC68F;" d="M170.047,451.647v15.994c0,10.914-8.848,19.761-19.761,19.761H36.684
			c-10.221,0-18.755-7.794-19.68-17.972l-1.454-15.994c-1.052-11.573,8.06-21.551,19.68-21.551h115.056
			C161.2,431.885,170.047,440.733,170.047,451.647z"/>
		<path style="fill:#DFC68F;" d="M164.465,535.966l4.107,27.347c1.385,9.219-5.579,17.638-14.899,17.859
			c-15.998,0.379-38.524-3.626-44.421-5.226c-16.239-4.405-34.152-13.688-47.504-26.448c-10.119-9.671-3.204-26.768,10.793-26.768
			h76.551C156.786,522.731,163.322,528.358,164.465,535.966z"/>
		<path style="fill:#DFC68F;" d="M337.766,268.254c11.343-13.073,22.686-26.146,34.029-39.219
			c7.34-8.459,14.313-17.278,22.148-25.251c5.116-5.206,9.695-4.513,14.659,0.402c4.985,4.935,5.292,9.379,0.819,14.764
			c-1.424,1.715-3.069,3.326-4.865,4.641c-21.536,15.764-43.119,31.463-64.69,47.179
			C339.166,269.931,338.466,269.093,337.766,268.254z"/>
		<path style="fill:#DFC68F;" d="M332.418,257.512c-3.349-29.233-6.751-56.99-9.595-84.803c-1.015-9.93,3.761-14.671,12.046-13.84
			c5.882,0.59,9.245,3.736,9.917,9.548c0.256,2.215,0.184,4.521-0.101,6.739c-3.277,25.51-6.604,51.014-10.003,76.509
			C334.477,253.207,333.55,254.654,332.418,257.512z"/>
	</g>
</g>
</svg>
