<?xml version="1.0" encoding="UTF-8"?>
<svg id="Layer_2" data-name="Layer 2" xmlns="http://www.w3.org/2000/svg" viewBox="0 0 574.27 592">
  <defs>
    <style>
      .cls-1, .cls-2 {
        fill: #dac694;
      }

      .cls-3 {
        fill: #998d6c;
      }

      .cls-2 {
        font-family: Helvetica-Light, 'Helvetica Light';
        font-size: 27.4px;
        font-weight: 300;
        letter-spacing: .1em;
      }

      .cls-4 {
        font-family: EditorialToday-Regular, 'Editorial Today';
        font-size: 161.86px;
        letter-spacing: .1em;
      }

      .cls-4, .cls-5 {
        fill: #faf3e4;
      }

      .cls-6 {
        fill: none;
        stroke: #dac694;
        stroke-miterlimit: 10;
        stroke-width: 1.02px;
      }
    </style>
  </defs>
  <g id="Layer_1-2" data-name="Layer 1">
    <g>
      <g>
        <path class="cls-1" d="M446.09,194.05c-.01,23.37-.14,46.74.04,70.11.12,14.93-6.17,25.88-19.06,33.31-40.52,23.35-80.98,46.78-121.49,70.15-13.18,7.61-26.36,7.48-39.54-.15-39.84-23.06-79.6-46.25-119.59-69.04-13.71-7.81-20.92-19.1-20.98-34.65-.17-47.1-.23-94.2-.02-141.31.07-15.17,7.58-26.06,20.81-33.62,39.64-22.68,79.14-45.59,118.6-68.57,14.32-8.34,28.23-8.16,42.51.15,39.15,22.8,78.33,45.53,117.67,67.98,14.87,8.48,21.65,20.56,21.21,37.72-.59,22.63-.14,45.28-.16,67.92Z"/>
        <text class="cls-4" transform="translate(0 534.87)"><tspan x="0" y="0">QBEES</tspan></text>
        <path class="cls-5" d="M203.44,304.11c-8.43,0-16.86-.11-25.29.05-4.05.08-5.91-1.34-5.87-5.6.17-17.18-.69-34.42.42-51.53,1.74-26.85,24.04-47.37,50.93-48.1,10.04-.27,20.1.01,30.15-.12,20.76-.28,34.68-14.1,35.06-34.83.18-9.72-.05-19.46.13-29.18.52-29.2,22.59-51.73,51.7-52.46,15.55-.39,31.13.03,46.69-.17,4.85-.06,7.02,1.35,6.92,6.62-.29,16.21.37,32.44-.34,48.62-1.23,28.25-23.68,49.61-52,50.1-11.99.21-23.99.02-35.99.08-2.58.01-5.51-.4-7.63.67-1.88.95-3.71,3.61-3.92,5.68-.14,1.38,2.34,3.67,4.13,4.43,1.95.83,4.45.44,6.72.44,12,.03,23.99-.12,35.99.06,29.73.44,52.32,22.71,52.9,52.3.29,15.23-.13,30.48.15,45.71.1,5.47-1.74,7.45-7.24,7.36-15.88-.28-31.79.35-47.65-.29-28.71-1.16-50.08-23.75-50.44-52.65-.15-11.99-.01-23.99-.07-35.99-.01-2.25.38-4.93-.68-6.63-1.16-1.86-3.7-3.65-5.79-3.86-1.36-.14-3.61,2.36-4.35,4.15-.82,1.96-.47,4.46-.47,6.72-.03,12,.11,23.99-.03,35.99-.34,29-22.8,51.73-51.76,52.42-7.45.18-14.91.03-22.37.03,0,0,0-.02,0-.02Z"/>
        <text class="cls-2" transform="translate(221.17 585.16)"><tspan x="0" y="0">CLEANING</tspan></text>
        <path class="cls-6" d="M459.95,194.17c-.01,25.15-.15,50.31.04,75.46.12,16.07-6.64,27.85-20.51,35.85-43.61,25.13-87.16,50.35-130.75,75.51-14.19,8.19-28.37,8.05-42.55-.16-42.87-24.82-85.67-49.78-128.72-74.31-14.75-8.41-22.52-20.55-22.58-37.29-.19-50.69-.25-101.39-.03-152.09.07-16.33,8.16-28.04,22.4-36.19,42.66-24.41,85.17-49.07,127.65-73.8,15.41-8.97,30.38-8.78,45.75.16,42.13,24.53,84.3,49.01,126.65,73.16,16,9.13,23.3,22.12,22.82,40.59-.63,24.35-.16,48.73-.17,73.1Z"/>
      </g>
      <g>
        <path class="cls-3" d="M245.85,146.05l.66.66c12.56-10.23,23-1.95,26.27,5.24,1.63,3.59,5.64,22.33,1.96,22.33h-19.04c-4.93,0-11.81-9.63-12.46-9.19-.26.18-3.93,9.19-11.18,9.19h-38.51c-2.8,0-4.47-3.14-2.89-5.45,3.04-4.42,7.97-8.21,12.58-8.92,2.32-.36,11.09-.07,11.09-.07l.1-7.32c.39-2.15-1.09-3.19-3.28-3.19h-11.31c-2.14,0-4.26-.49-6.14-1.51-1.01-.54-1.76-1.07-2.17-1.31-12.82-7.69-10.15-27.22,3.05-32.03,1.67-.61,5.09-.45,5.29-.62.33-.26-3.02-5.79-3.57-7.58-9.36-30.26,31.27-44.49,45.4-20.45,1.06,1.8,4.02,7.93,4.13,12.94v47.27ZM237.97,137.51c1.41-1.69,2.43-38.5,0-43.99-11.33-25.64-43.13-7.77-34.39,12.07,3.26,7.39,22.66,23.76,29.8,29.28.74.57,4.33,2.94,4.59,2.64ZM223.02,142.77c3.11,0,4.66-3.75,2.46-5.95-5.28-5.3-11.32-11.14-16.47-14.34-12.59-7.85-24.77,6.66-16.31,16.32.35.4,1.52,1.39,2.93,2.29,1.7,1.1,3.7,1.68,5.72,1.68h21.66Z"/>
        <path class="cls-3" d="M224.84,188.62v4.16c0,2.84-2.3,5.14-5.14,5.14h-29.56c-2.66,0-4.88-2.03-5.12-4.68l-.38-4.16c-.27-3.01,2.1-5.61,5.12-5.61h29.94c2.84,0,5.14,2.3,5.14,5.14Z"/>
        <path class="cls-3" d="M223.38,210.55l1.07,7.12c.36,2.4-1.45,4.59-3.88,4.65-4.16.1-10.02-.94-11.56-1.36-4.23-1.15-8.89-3.56-12.36-6.88-2.63-2.52-.83-6.96,2.81-6.96h19.92c2,0,3.7,1.46,4,3.44Z"/>
        <path class="cls-3" d="M268.47,140.9c2.95-3.4,5.9-6.8,8.85-10.2,1.91-2.2,3.72-4.5,5.76-6.57,1.33-1.35,2.52-1.17,3.81.1,1.3,1.28,1.38,2.44.21,3.84-.37.45-.8.87-1.27,1.21-5.6,4.1-11.22,8.19-16.83,12.28-.18-.22-.36-.44-.55-.65Z"/>
        <path class="cls-3" d="M267.08,138.1c-.87-7.61-1.76-14.83-2.5-22.06-.26-2.58.98-3.82,3.13-3.6,1.53.15,2.41.97,2.58,2.48.07.58.05,1.18-.03,1.75-.85,6.64-1.72,13.27-2.6,19.91-.05.4-.29.78-.59,1.52Z"/>
      </g>
    </g>
  </g>
</svg>